<?xml version="1.0" encoding="UTF-8"?>
<svg id="Layer_1" data-name="Layer 1" xmlns="http://www.w3.org/2000/svg" viewBox="0 0 1080 1080">
  <defs>
    <style>
      .cls-1 {
        fill: none;
        stroke: #1e93d1;
        stroke-miterlimit: 10;
        stroke-width: 12.63px;
      }
    </style>
  </defs>
  <path class="cls-1" d="M443.46,358.4c-1.01-7.82,2.81-14.83,10.89-16.02l92.75-.09c8.9.8,12.78,7.7,12.03,16.11,17.84,1.35,45.39-6.7,50.1,17.63v111.95c.33,6.81-10.15,17.02-16.39,17.02h-10.83l.1,6.71c4.78,2.04,9.19,7.57,10.62,12.58.22.76,1.04,4.67,1.04,5.15v83.2h25.36v-16.39c0-.64,1.89-3.65,2.54-4.27,3.41-3.24,15.07-3.25,18.53-.09,4.51,4.12,1.64,15.08,2.44,20.76,18.28.3,34.21,16.16,33.41,34.64h-327.24c.05-18.65,14.74-33.96,33.4-34.65.71-6.81-2.68-18.81,5.21-22.31,3.22-1.43,11.86-1.04,14.79.77,6.61,4.1,1.92,15.2,4.13,21.55h25.36v-86.3c0-4.09,6.75-13.29,11.01-14.66l.13-6.68h-10.83c-6.47,0-16.46-10.92-16.33-17.7l-.09-110.07c.09-8.86,10.23-18.85,18.89-18.85h8.97Z"/>
  <path class="cls-1" d="M641.72,390.57c10.03-1.06,16.35-8.15,24.45-12.71l59.94,60.55c-6.73,7.24-13.16,14.96-20.04,22.06-11.05,11.41-20.04,19.58-36.19,23.2-18.74,4.19-38.55-1.85-57.54-1.55v-91.55c9.38-.73,20.18.98,29.38,0Z"/>
  <path class="cls-1" d="M595.42,243.56c10.98,10.44,3.67,29.17-11.23,30.09h-165.77c-21.66-2.03-22.06-31.53-1.24-34.63l167.66-.03c3.66.26,7.93,2.05,10.58,4.57Z"/>
  <path class="cls-1" d="M677.79,339.38c3.93-.31,9.03,1.24,12.18,3.56l72.34,72.41c12.21,17.16-11.6,40.14-28.05,26.82l-71.45-71.45c-10.19-11.59,1.36-30.27,14.98-31.34Z"/>
  <path class="cls-1" d="M543.06,339.85h-83.51v-14.54c0-3.73,6.59-8.7,10.26-8.92,19.72,1.02,41.07-1.53,60.6-.08,2.81.21,5.29.63,7.66,2.23,1.53,1.03,4.99,5.01,4.99,6.76v14.54Z"/>
  <rect class="cls-1" x="477.48" y="276.13" width="47.63" height="37.74"/>
  <path class="cls-1" d="M518.23,235.83l-33.93.71c-1.13-8.25,2.72-15.2,11.45-16.08,11.89-1.19,23.85.57,22.49,15.37Z"/>
</svg>