<?xml version="1.0" encoding="UTF-8"?>
<svg id="Layer_1" data-name="Layer 1" xmlns="http://www.w3.org/2000/svg" viewBox="0 0 1080 1080">
  <defs>
    <style>
      .cls-1 {
        fill: #1e93d1;
      }
    </style>
  </defs>
  <rect class="cls-1" x="217.96" y="895.53" width="5.56" height="1.39"/>
  <g>
    <path class="cls-1" d="M734.37,358.61v362.9c-2.49,6.2-6.73,10.43-12.91,12.91h-111.6c-4.64-2.67-4.56-10.44,1.19-11.34l106.26-.03c2.63-.07,4.83-1.83,5.52-4.35l-.18-357.85-3.42-3.42-355.77-.38c-2.75-.13-5.04,1.24-6.08,3.79l-.38,355.77c-.12,2.54,1.02,4.67,3.26,5.85l229.48.56c6.54.77,7.11,8.11,1.88,11.4h-233.08c-6.57-2.75-12.45-7.96-12.94-15.53v-357.65c.58-7.93,7.66-14.99,15.56-15.56,120.45.55,241.14-.95,361.45.75,5.74,1.95,9.42,6.81,11.73,12.18Z"/>
    <path class="cls-1" d="M513.44,671.4c15.51-2.22,15.38,14.1,0,12.14,1.24,11.29-3.61,21.7-15.64,23.46h-100.05c-9.66-1.63-14.96-8.06-15.68-17.72-1.6-21.5,1.19-45.04.11-66.76.83-7.16,5.49-12.63,12.04-15.29l106.35-.02c10.32,2.95,13.99,13.21,12.86,23.2,15.49-2.79,15.52,14.15,0,11.38v29.61ZM397.83,618.42c-3.03.78-3.36,2.75-3.61,5.5-1.94,21.23,1.55,45.34,0,66.88.33,3.8,3.91,4.62,7.22,4.93,29.35,2.74,62.89-2.13,92.68,0,3.49-.07,7.51-1.6,7.23-5.68-1.56-21.3,1.91-45.15-.01-66.13-.36-3.91-1.42-5.66-5.69-5.69l-97.81.2Z"/>
    <path class="cls-1" d="M513.44,438.33c15.51-2.77,15.48,14.17,0,11.38,1.13,9.99-2.54,20.25-12.86,23.2l-106.19-.18c-6.76-2.14-11.32-8.14-12.21-15.12,1.08-21.72-1.71-45.26-.11-66.76.72-9.67,6.02-16.09,15.68-17.72h100.05c12.03,1.75,16.89,12.17,15.64,23.46,15.38-1.96,15.51,14.36,0,12.14v29.61ZM399.36,384.6c-2.4.5-5.09,1.88-5.15,4.72,1.56,21.54-1.94,45.67,0,66.88.4,4.32,1.34,5.29,5.69,5.69,30.37,2.78,64.92-2.18,95.73,0,4.25-.03,5.33-1.75,5.69-5.69,1.94-21.22-1.56-45.35,0-66.88-.19-3.55-4.09-4.88-7.22-4.93l-94.75.21Z"/>
    <path class="cls-1" d="M691.86,671.4c15.72-2.29,15.97,14.11,0,12.14,1.5,11.51-3.45,21.68-15.64,23.46l-100.69-.11c-11-2.17-14.39-10.33-15.04-20.64-1.06-16.79-1.42-44.92.13-61.43.77-8.17,4-14.78,12.19-17.42l106.36-.35c10.77,3.57,13.94,12.68,12.69,23.37,4.83-.82,13.43.11,11.83,6.82-1.39,5.85-7.18,4.52-11.83,4.56v29.61ZM678.76,693.98c1.05-.97,1.62-3.97,1.75-5.46,1.83-20.28-1.48-43.27,0-63.85.18-3.82-2.61-6.63-6.45-6.45l-98.34.43-2.66,2.66.18,71.16c1.08,2.52,4.11,3.17,6.61,3.26,30-1.95,63.05,2.49,92.68,0,1.58-.13,5.16-.75,6.23-1.75Z"/>
    <path class="cls-1" d="M691.86,555.24c16.44-3.02,15.37,13.81,0,11.38,1.31,10.47-2.27,19.95-12.86,23.2l-105.43-.18c-8.63-2.85-12.12-8.61-12.95-17.42-1.56-16.67-1.23-45.25-.13-62.19.67-10.45,3.98-17.58,14.91-20.02h102.36c11.31,2.55,15.55,12.58,14.11,23.47,15.37-2.42,16.45,14.41,0,11.38v30.37ZM577,501.5c-2.11.75-4.34,2.3-4.37,4.74l.43,69.49c1.66,2.28,3.3,2.83,6.03,3.08,30.12,2.76,64.41-2.17,94.97,0,4.9,0,6.04-2.83,6.45-7.22,1.85-19.99-1.47-42.78,0-63.07-.01-4.12-1.94-7.39-6.45-7.22l-97.06.2Z"/>
    <path class="cls-1" d="M513.44,555.24c15.88-2.95,15.31,13.96,0,11.38,1.33,10.96-3.59,22.32-15.57,23.53-3.8.39-23.48.51-25.99-.56-4.03-1.73-4.03-8.52,0-10.24,4.89-2.1,18.22.37,24.44-.62,2.02-.32,3.89-1.72,4.82-3.53l-.55-71.26c-1.7-2.01-3.19-2.41-5.71-2.64-30.28-2.8-64.91,2.13-95.65.08-2.85.74-5.09,1.5-4.99,4.87,1.39,21.62-1.85,45.52-.03,66.86.34,4.01,1.44,5.21,5.71,5.68,16.51,1.83,36.25-1.44,53.12.02,6.21,1.02,5.73,11.3-.7,11.36-17.42-1.67-39.09,2.27-56-.21-8.92-1.31-13.65-9.17-14.28-17.61-1.61-21.49,1.2-45.05.12-66.76,1.67-9.41,7.34-14.96,16.97-15.68,31.59-2.37,66.09,1.86,98,0,12.62,1.09,17.54,11.98,16.29,23.57,15.33-2.57,15.88,14.34,0,11.38v30.37Z"/>
    <path class="cls-1" d="M691.86,438.33c16.01-2.88,15.8,14.29,0,11.38,1.32,10.65-2.08,19.76-12.69,23.37l-106.36-.35c-8.24-3-11.4-9.02-12.19-17.42-1.55-16.51-1.19-44.64-.13-61.43.61-9.75,4.17-19.09,15.04-20.64,17.67-2.53,40.09,1.49,58.28-.22,6.83.3,8.59,10.2,1.46,11.36-17.83,1.33-37.84-1.62-55.41.02-4.81.45-6.76,1.36-7.22,6.45-1.89,21.02,1.52,44.8,0,66.13-.03,1.96,2.36,4.52,4.23,4.88l99.86-.32c2.93-1.23,3.52-3.14,3.79-6.08,1.9-20.84-1.34-44.75-.22-65.91-.76-3.24-2.45-4.44-5.7-4.93-5.06-.77-17.25.96-20.68-.57-3.47-1.55-3.73-7.66-.57-9.72,2.85-1.85,18.11-1.68,22.18-1.27,12.57,1.27,17.85,11.75,16.33,23.53,15.85-2.01,15.85,14.39,0,12.14v29.61Z"/>
    <path class="cls-1" d="M413.02,534.16c3.11-.63,15.41-.57,18.48.15,7.18,1.7,6.67,10.33-.61,11.64-3.23.58-14.72.64-17.87,0-6.96-1.4-6.97-10.39,0-11.8Z"/>
    <path class="cls-1" d="M589.9,417.98c1.64-.48,20.06-.48,21.7,0,4.74,1.39,5.03,10.18-1.41,11.19-3.07.48-16.69.52-19.53-.12-5.71-1.27-5.35-9.73-.76-11.07Z"/>
    <path class="cls-1" d="M435.03,652.64c2.76,2.78,1.48,8.9-2.46,9.64-2.58.48-17.91.49-20.46,0-5.53-1.05-5.69-9.9.15-11.21,2.97-.66,14.73-.55,18.08-.18,1.25.14,3.87.91,4.7,1.75Z"/>
    <path class="cls-1" d="M435.03,427.48c-.83.84-3.45,1.61-4.7,1.75-3.34.37-15.1.48-18.08-.18-5.84-1.31-5.67-10.16-.15-11.21,2.56-.48,17.88-.48,20.46,0,3.94.73,5.22,6.86,2.46,9.64Z"/>
    <path class="cls-1" d="M590.67,651.07c2.62-.58,17.56-.58,20.17,0,6.02,1.35,5.26,10.24.14,11.21-2.17.41-19.3.38-21.08-.14-4.59-1.34-4.95-9.79.76-11.07Z"/>
    <path class="cls-1" d="M613.42,535.75c4,3.67,1.19,9.61-3.99,10.34-3.13.44-15.16.53-18.01-.11-6.46-1.45-6.49-10.37,0-11.83,2.87-.64,14.1-.54,17.32-.18,1.4.16,3.66.85,4.68,1.78Z"/>
  </g>
</svg>