<?xml version="1.0" encoding="UTF-8"?>
<svg id="Layer_1" data-name="Layer 1" xmlns="http://www.w3.org/2000/svg" viewBox="0 0 1080 1080">
  <defs>
    <style>
      .cls-1 {
        fill: #1e93d1;
      }
    </style>
  </defs>
  <path class="cls-1" d="M336.85,278.64c7.05-8.67,13.69-1.19,11.72,8.05h11.72v-19.4c0-1.39,3.68-4.48,5.48-4.04,26.43,1.83,56.01-2.38,82.06-.02,2.1.19,6.19,1.65,6.19,4.06v19.4h164.01v-19.4c0-1.39,3.68-4.48,5.48-4.04,26.44,1.82,55.99-2.37,82.06-.02,3.09.28,5.04,1.05,6.03,4.22l-.17,343.65c-1.19,2.83-3.03,3.4-5.86,3.66-26.03,2.37-55.64-1.86-82.06-.02-1.8.43-5.48-2.65-5.48-4.04v-19.4h-164.01v19.4c0,1.39-3.68,4.48-5.48,4.04-26.43-1.83-56.01,2.38-82.06.02-2.1-.19-6.19-1.65-6.19-4.06v-19.4h-11.72c1.97,9.25-4.66,16.72-11.72,8.05v-57.11c7.06-8.67,13.69-1.19,11.72,8.05h11.72v-222.59h-11.72c1.97,9.25-4.66,16.72-11.72,8.05v-57.11ZM442.28,274.98h-70.29v11.72h70.29v-11.72ZM700.02,274.98h-70.29v11.72c49.81,5.2,76.27,62.19,45.68,103.16-11.09,14.86-27.27,23.35-45.58,25.81l.32,46.84c43.58,4.78,70.6,49.96,52.64,90.69-9.39,21.29-29.97,35.58-53.06,38.1v11.72h70.29v-328.03ZM348.56,579.58h280.07c11.7,0,28.11-9.86,35.49-18.69,28.21-33.75,5.51-84.08-37.66-86.77l-182.26-.06c-41.02-6.15-41.55-63.19-.62-70l182.88-.17c43.62-2.99,66.01-53.6,37.32-87.17-7.42-8.69-23.53-18.3-35.15-18.3h-280.07v17.57h280.07c4.22,0,13.39,4.63,16.82,7.34,25.64,20.2,12.73,60.13-19,62.98-62.83.63-125.92-1.4-188.61,1.04-60.31,13.29-54.35,100.48,8.42,104.41l180.18-.06c31.72,2.85,44.63,42.78,19,62.98-3.44,2.71-12.61,7.34-16.82,7.34h-280.07v17.57ZM442.28,327.7h-70.29v222.59h70.29v-46.86c-25.02-2.69-47.09-19.39-55.11-43.37-13.51-40.37,13.43-80.91,55.11-85.5v-46.86ZM454,327.7v46.86h17.57v-46.86h-17.57ZM483.29,327.7v46.86h17.57v-46.86h-17.57ZM512.58,327.7v46.86h17.57v-46.86h-17.57ZM541.86,327.7v46.86h17.57v-46.86h-17.57ZM571.15,327.7v46.86h17.57v-46.86h-17.57ZM600.44,327.7v46.86h17.57v-46.86h-17.57ZM629.73,373.83c23.2-6.78,23.23-38.6,0-45.4v45.4ZM471.57,415.56h-17.57v46.86h17.57v-46.86ZM500.86,415.56h-17.57v46.86h17.57v-46.86ZM512.58,415.56v46.86h17.57v-46.86h-17.57ZM541.86,415.56v46.86h17.57v-46.86h-17.57ZM571.15,415.56v46.86h17.57v-46.86h-17.57ZM600.44,415.56v46.86h17.57v-46.86h-17.57ZM442.28,461.69v-45.4c-23.23,6.8-23.2,38.62,0,45.4ZM454,503.43v46.86h17.57v-46.86h-17.57ZM483.29,503.43v46.86h17.57v-46.86h-17.57ZM530.15,503.43h-17.57v46.86h17.57v-46.86ZM541.86,503.43v46.86h17.57v-46.86h-17.57ZM571.15,503.43v46.86h17.57v-46.86h-17.57ZM600.44,503.43v46.86h17.57v-46.86h-17.57ZM629.73,549.55c23.23-6.8,23.2-38.62,0-45.4v45.4ZM442.28,591.29h-70.29v11.72h70.29v-11.72Z"/>
</svg>