<?xml version="1.0" encoding="UTF-8"?>
<svg id="Layer_1" data-name="Layer 1" xmlns="http://www.w3.org/2000/svg" viewBox="0 0 1080 1080">
  <defs>
    <style>
      .cls-1 {
        fill: #1e93d1;
      }
    </style>
  </defs>
  <path class="cls-1" d="M739.83,267.96l-.55,283.67-159.5,77.59c-6.41,6.24.19,28.84-5.63,38.65h-131.4c-5.81-9.81.78-32.41-5.63-38.65l-158.66-75.57.09-231.38c.63-1.35,5.18-5.76,5.67-5.76h162.82c7.55,0,3.17-41.04,4.28-48.56h288.51ZM505.65,287.91h-37.23v28.66h37.23v-28.66ZM559.92,287.91h-37.23v28.66h37.23v-28.66ZM614.2,287.91h-37.23v28.66h37.23v-28.66ZM668.47,287.91h-37.23v28.66h37.23v-28.66ZM722.74,287.91h-37.23v28.66h37.23v-28.66ZM722.69,333.66h-428.47v211.38l160.05,72.75c5.93,5.78,1.46,24.33,2.77,32.94h102.83c1.31-8.6-3.16-27.16,2.77-32.94l160.05-72.75v-211.38Z"/>
  <path class="cls-1" d="M708.41,347.95v184.24l-160,77.09c-5.66,6.36-1.84,18.87-2.82,27.17h-74.27c-.97-8.3,2.85-20.82-2.82-27.17l-160-77.09v-184.24h399.91ZM497.03,356.52h-179.96v51.42c7.4-.53,15.7,1.73,22.8-1.48,4.97-2.25,22.02-24.23,24.33-24.23h132.83v-25.71ZM699.84,356.52h-179.96v25.71h132.83c2.31,0,19.36,21.98,24.33,24.23,7.1,3.21,15.4.95,22.8,1.48v-51.42ZM459.9,402.22h-89.98c-2.29,0-17.38,20.47-23.44,22.27-5.74,1.71-29.41-.89-29.41.59v105.69c53.97,20.58,104.75,49.56,158.29,71.65,7.96,5.45,3.64,17.04,4.53,25.47h57.13c.88-8.43-3.44-20.01,4.53-25.47,53.54-22.09,104.32-51.07,158.29-71.65v-105.69c0-1.47-23.66,1.12-29.41-.59-6.05-1.8-21.14-22.27-23.44-22.27h-89.98v42.85h-97.12v-42.85Z"/>
  <rect class="cls-1" x="497.03" y="453.64" width="22.85" height="157.11"/>
  <rect class="cls-1" x="377.06" y="410.79" width="68.56" height="5.71"/>
  <rect class="cls-1" x="571.3" y="410.79" width="68.56" height="5.71"/>
  <rect class="cls-1" x="388.48" y="430.78" width="42.85" height="2.86"/>
  <rect class="cls-1" x="585.58" y="430.78" width="42.85" height="2.86"/>
</svg>