<?xml version="1.0" encoding="UTF-8"?>
<svg id="Layer_1" data-name="Layer 1" xmlns="http://www.w3.org/2000/svg" viewBox="0 0 1080 1080">
  <defs>
    <style>
      .cls-1 {
        fill: none;
        stroke: #1e93d1;
        stroke-miterlimit: 10;
        stroke-width: 9.01px;
      }

      .cls-2 {
        fill: #1e93d1;
      }
    </style>
  </defs>
  <path class="cls-1" d="M632.43,407.9c9.39-1.36,32.36-1.1,42.14-.26,14.58,1.26,26.37,12.6,30,26.45l.44,216.65c.07,2.59-1.94,3.92-4.2,4.62-28.73-1.46-60.56,2.59-88.94.22-3.09-.26-6.57-.59-7.27-4.2l-.18-211.5c.93-14.86,12.99-29.81,28-31.98ZM650.54,483.8c-14.42,21.86-41.9,49.99-22.16,76.77,17.17,23.28,53.29,14.46,59.44-13.47,3.81-17.3-9.47-36.85-19.18-50.61-3.52-4.99-10.7-18.59-18.11-12.69Z"/>
  <path class="cls-1" d="M337.78,452.87c9.23-1.44,34.16-1.08,43.93-.24,18.98,1.64,31.12,19.75,33.08,37.49l-.47,162.79-3.05,2.25-97.54.42c-1.96-.04-4.95-1.3-5.54-3.28l-.06-164.68c1.54-14.74,14.33-32.35,29.65-34.74ZM359.83,506.62c-3.05.62-9.76,10.62-11.95,13.68-7.79,10.9-21,31.3-20.49,44.85,1.14,30.67,39.86,45.22,59.6,20.72,15.83-19.65,5.11-38.22-6.26-56.39-2.79-4.46-12.04-18.92-15.41-21.63-1.67-1.34-3.38-1.65-5.47-1.22Z"/>
  <path class="cls-2" d="M575.46,289.69c0,36.45-29.55,65.99-65.99,65.99s-65.99-29.55-65.99-65.99,29.55-65.99,65.99-65.99,65.99,29.55,65.99,65.99ZM554.13,261.22c.62-.81-3.59-5.7-4.38-6.63-22.89-26.56-66.46-23.69-84.73,6.17l31.51,17.97c8.05-7.47,17.93-6.87,26.15.02l31.47-17.53ZM502.97,342.39v-37.93c0-.37-4.39-1.8-6.19-3.95-2.23-2.67-2.94-6.21-4.1-9.35l-33.38-19.32c-11.99,31.5,10.24,67.41,43.67,70.56ZM516.2,342.39c33.41-3.2,55.03-39.09,43.67-70.56l-33.06,18.98c-1.81,3.69-2.39,7.17-5.31,10.31-1.45,1.56-5.29,3.03-5.29,3.34v37.93Z"/>
  <rect class="cls-2" x="427.11" y="546.16" width="164.96" height="34.4"/>
  <path class="cls-1" d="M382.12,328.28v22.05c10.98-2.67,12.62,10.91,6.45,16.59l-54.94-.29c-5.32-2.35-3.96-20.36,6.16-16.29.54-21.52-4.43-45.38,16.83-58.59,14.04-8.73,31.29-3.45,47-5.05l1.33-1.32c-2.53-11.25,9.62-12.93,16.24-7.18l.25,54.54c-1.28,4.95-13.39,4.49-15.56,1.34-1.28-1.86-.19-4.34-2.14-5.8h-21.61Z"/>
  <path class="cls-1" d="M611.47,328.28c3.55,9.76-14.94,10.17-16.59,4.68l.27-54.96c8.11-5.94,19.31-3.41,16.32,8.83,18.47,1.45,38.5-5.09,53.39,8.8,16.01,14.92,9.87,35.16,11,54.72,11.59-1.77,9.09,6.66,8.39,15l-3.49,1.8-53.49-.43-1.48-.7c-2.26-7.37-3.04-17.67,7.73-15.67v-22.05h-22.05Z"/>
  <rect class="cls-1" x="343.3" y="379.44" width="36.17" height="60.87"/>
  <rect class="cls-1" x="637.05" y="379.44" width="36.17" height="15.88"/>
  <path class="cls-2" d="M655.56,498.53c7.58,14.52,26.65,32.85,18.98,50.28-11.29,25.68-53.09,10.8-37.09-22.98,1.15-2.42,16.75-28.24,18.11-27.31ZM656.71,552.98c6.12,6.06,14.46-5.07,15.42-10.99,1.15-7.08-4.78-23.28-13.89-19.18-8.07,3.63,1.8,12.16,1.8,15.86,0,4.8-8.91,8.79-3.33,14.31Z"/>
  <path class="cls-2" d="M361.39,523.24c6.6,9.6,21.85,29.35,21.68,41-.29,19.45-25.36,30.13-38.36,13.6-13.91-17.68,6.67-40.12,16.68-54.6ZM373.02,548.21c-3.42-2.89-8.98-2.84-10.12,2.11-1.62,7.06,4.59,7.74,4.32,13.04-.19,3.72-8.28,7.79-3.26,13.75,5.5,6.53,14.3-4.48,15.3-10.43.93-5.55-1.95-14.85-6.24-18.48Z"/>
</svg>