<?xml version="1.0" encoding="UTF-8"?>
<svg id="Layer_1" data-name="Layer 1" xmlns="http://www.w3.org/2000/svg" viewBox="0 0 1080 1080">
  <defs>
    <style>
      .cls-1 {
        fill: #1e93d1;
      }
    </style>
  </defs>
  <path class="cls-1" d="M439.74,614.82h-41.76c-5.98,0-17.5-5.83-22.14-9.7-24.45-20.43-19.29-59.69,9.74-72.83,15.38-6.96,39.58-2.74,56.71-3.74,45.67-2.66,70.8-54.44,43.77-91.8-23.86-32.97-61.81-21.59-96.88-23.6-23.29,1.56-43.2,21.98-43.59,45.48-.41,24.82,30.11,36.26,45.42,16.8,2.24-2.85,5.35-9.56,5.35-13.11v-20.54h14.31v22.38c0,8.79-7.56,20.51-14.06,26.08-24.91,21.35-63.7,4.05-65.33-28.37-1.58-31.51,24.64-60.97,56.07-63.03,19.04-1.24,39.43.97,58.62.02,67.6,6.49,90.5,95.24,32.5,132.63-25.89,16.69-48.05,9.39-76.35,11.33-23.49,1.61-35.95,28.35-21.17,47.05,3.62,4.58,12.97,10.65,18.88,10.65h39.22l.69.69v13.61Z"/>
  <path class="cls-1" d="M627.1,470.84c-.43,5.16,3.42,10.84,7.99,13,4,1.89,16.53,1.67,21.33,1.32,5.78-.42,10.95-3.66,12.89-9.26.66-1.91.43-3.68,1.39-5.07h14.07l.02,89.77c-1.19,22.98-9.55,45.24-24.76,62.49l-51.36-51.07,2.85-7.16c3.21-29.69-1.56-61.94.77-91.52.07-.89.27-1.67.48-2.52h14.31Z"/>
  <path class="cls-1" d="M526.04,658.2v-71.99h60.68c.89,0,4.45-1.02,5.55-1.37,1.02-.32,5.88-2.72,6.22-2.57l51.21,51.24c-16.52,14.57-37.73,23.02-59.73,24.71l-63.93-.02Z"/>
  <path class="cls-1" d="M439.74,629.58v13.61l-1.59.72c-22.15-1.02-45.38,1.28-67.39-.03-26.34-1.57-51.27-18.06-61.62-42.45,0,0-2.95-7.56-3.22-8.53-.16-.57-3.14-11.09-3.26-12.44-.77-8.91.18-19.8,2.56-28.4.48-1.74,4.46-13.26,5.53-13.34l12.2,6.72c-.91,3.04-2.5,5.88-3.43,8.92-11.35,37.29,15.56,73.8,53.98,75.24l66.24-.02Z"/>
  <rect class="cls-1" x="454.05" y="600.51" width="57.68" height="43.38"/>
  <rect class="cls-1" x="655.71" y="268.72" width="14.77" height="115.37"/>
  <rect class="cls-1" x="598.03" y="268.72" width="14.79" height="115.37"/>
  <rect class="cls-1" x="627.1" y="268.72" width="14.31" height="115.37"/>
  <rect class="cls-1" x="684.78" y="268.72" width="14.31" height="115.37"/>
  <path class="cls-1" d="M439.28,501.07c.03-.22.55-1.59.75-1.64,11.83.37,22.83-7.98,26.6-19,6.69-19.55-7.29-37.89-27.32-38.7.29-.44-.03-.84-.03-1.11v-12.46l.76-.62c28.63.37,49.12,27.93,40.89,55.65-4.69,15.78-18.7,28.12-35.09,30.44-1.01.14-6.57.89-6.57-.11,0-3.71-.46-8.99,0-12.46Z"/>
  <path class="cls-1" d="M733.7,398.85l-4.61,28.61h-55.38c1.79-4.17,3.47-8.03,3.71-12.67.31-5.87-1.1-10.77-3.71-15.94h59.99Z"/>
  <path class="cls-1" d="M623.41,398.85c-4.88,9.45-4.72,19.13,0,28.61h-55.38l-4.61-28.61h59.99Z"/>
  <path class="cls-1" d="M703.7,254.42h-110.29l3.51-14.33,102.86.03c.6.02.86.22,1.06.78,1.37,3.73,1.64,9.55,2.85,13.53Z"/>
  <polygon class="cls-1" points="733.23 384.09 713.39 384.09 713.39 298.25 733.23 384.09"/>
  <polygon class="cls-1" points="583.72 384.09 563.88 384.09 583.72 298.25 583.72 384.09"/>
  <circle class="cls-1" cx="648.62" cy="413.12" r="14.42"/>
  <rect class="cls-1" x="598.03" y="441.77" width="29.07" height="14.77"/>
  <rect class="cls-1" x="669.99" y="441.77" width="29.09" height="14.77"/>
  <path class="cls-1" d="M655.71,440.85v30h-14.31v-30c4.47,1.38,9.84,1.38,14.31,0Z"/>
</svg>