<?xml version="1.0" encoding="UTF-8"?>
<svg id="Layer_1" data-name="Layer 1" xmlns="http://www.w3.org/2000/svg" viewBox="0 0 1080 1080">
  <defs>
    <style>
      .cls-1 {
        fill: #1e93d1;
      }
    </style>
  </defs>
  <path class="cls-1" d="M727.08,348.26v115.08c.34.55.77.54,1.34.6,3.64.43,8.32-.24,12.05-.2.24,0,.93.09.97.37l-28.58,28.5-28.86-28.69h13.97v-86.56h-16.69l-54.85,327.28c-2.25,14.28-13.99,25.57-28.41,27.09h-178.15c-13.73-1.56-24.73-11.39-28.03-24.76l-60.2-357.85.51-.87h394.94ZM651.78,377.37h-285.67l53.69,320.68c.35,1.58.34,3.39,1.82,4.39h174.65s.79-.76.79-.76l54.72-324.3Z"/>
  <path class="cls-1" d="M712.56,514.01l.93.57c11.07,14.14,25.05,28.83,32.01,45.62,13.21,31.86-22.13,61.5-51.29,43.91-15.35-9.26-21.12-27.67-14.17-44.19,7.1-16.87,21.08-31.87,32.51-45.91ZM712.34,561.35c-2.03,4.97-10.34,13.41-3.24,17.79,4.01,2.47,10.43-.2,10.2-5.14-.08-1.7-6.09-13.32-6.96-12.65Z"/>
  <path class="cls-1" d="M508.56,586.58c8.99,10.04,18.13,20.8,25.38,32.25,8.14,12.85,14.23,24.7,8.39,40.15-9.66,25.55-43.35,31.13-60.94,10.07-19.17-22.95-.44-47.83,14.37-66.73,4.16-5.31,9-10.24,12.8-15.74ZM509.33,634.32c-.56-.12-.63.05-.95.4-.73.79-2.78,4.4-3.38,5.55-1.81,3.45-4.18,7.4-.91,10.74,3.72,3.79,11.22,1.5,11.43-3.72.15-3.7-4.8-9.56-6.2-12.97Z"/>
  <path class="cls-1" d="M567.55,405.71c7.74,12.58,16.17,24.87,22.46,38.28,5.49,11.71,9.41,21.56,2.59,33.92-10.83,19.6-39.4,19.88-50.58.5-8.23-14.26-1.61-26.99,5.16-40.11,5.78-11.21,12.85-21.72,19.58-32.35l.8-.24Z"/>
  <path class="cls-1" d="M451.11,405.71c7.73,12.58,16.17,24.87,22.46,38.28,5.49,11.7,9.4,21.58,2.59,33.92-16.48,29.83-64.97,11.46-52.11-24.94,5.86-16.61,17.17-32.07,26.26-47.01l.8-.24Z"/>
  <circle class="cls-1" cx="479.84" cy="536.51" r="14.54"/>
  <circle class="cls-1" cx="596.27" cy="536.51" r="14.54"/>
  <circle class="cls-1" cx="538.06" cy="536.5" r="14.53"/>
  <circle class="cls-1" cx="421.6" cy="536.51" r="14.52"/>
</svg>