<?xml version="1.0" encoding="UTF-8"?>
<svg id="Layer_1" data-name="Layer 1" xmlns="http://www.w3.org/2000/svg" viewBox="0 0 1080 1080">
  <defs>
    <style>
      .cls-1 {
        fill: #fff;
      }

      .cls-2 {
        fill: #1e93d1;
      }
    </style>
  </defs>
  <path class="cls-2" d="M510.9,385.65c-.27-7.48-.96-32.63-.32-36.21.64-3.69-40,.11-49.03.96-1.12.11-2.08.8-2.56,1.76l-12.28,24.51c-.59,1.17-1.82,1.87-3.15,1.76-5.66-.48-11.27-.96-16.93-1.44-1.66-.16-2.94-1.55-2.94-3.2.05-7.64,1.12-19.33,6.52-32.31,2.72-6.57,5.98-12.12,9.24-16.72,5.23-7.37,13.73-11.7,22.75-11.7h115.79c13.03,0,23.61,10.52,23.61,23.55v10.36c0,1.76-1.44,3.2-3.26,3.2h-2.99c-1.76,0-3.2,1.5-3.2,3.26l.32,31.83c0,1.28.8,2.4,1.98,2.94l6.09,2.56c1.12.48,1.87,1.5,1.98,2.67l.64,7.53h-104.36l.91-6.25c.16-1.07.85-1.98,1.82-2.4l7.58-3.69c1.12-.53,1.82-1.71,1.82-2.99Z"/>
  <rect class="cls-2" x="407.15" y="400.98" width="244.88" height="365.96" rx="8.64" ry="8.64"/>
  <g>
    <path class="cls-1" d="M524.29,543.43c4.54-1.41,6.76,2.1,9.42,4.98,21.23,23,61.05,79.26,65.78,109.6,11.69,75.04-84.29,113.5-130.63,56.61-35.07-43.05-5.89-88.76,20.68-126.17,3.94-5.55,32.03-44.17,34.75-45.01ZM473.39,656.56c-.77,2.48,0,13.36,0,17.08,0,6.33,7.78,21.6,11.94,26.78,8.43,10.5,30.59,24.27,44.39,21.6,4.54-.88,5.68-6.57,1.74-8.51-3.57-1.76-13.47-2.22-19.33-4.59-17.28-7-26.92-21.92-29.49-39.97-.65-4.6,2.15-15.66-5.09-14.98-1.03.1-3.92,1.81-4.16,2.59Z"/>
    <path class="cls-1" d="M566.45,434.09c1.04-.29,1.9-.34,2.94-.03,4.96,1.48,33.05,46.7,35.82,54.22,19.55,52.97-48.29,81.45-72.83,39.81-10.73-18.2-5.37-36.11,4.19-53.2,3.04-5.44,26.42-39.86,29.88-40.81ZM573.55,528.49c-18.8-.78-27.76-14.08-27.77-32.01l-5.13-1c-4.68,19.94,11.83,41.06,32.96,38.66l-.06-5.65Z"/>
    <path class="cls-1" d="M634.76,523.11c18.56,27.12,55.96,65.16,28.14,98.62-16.06,19.32-48.28,18.82-63.58-1.14-19.74-25.77-3.6-51.23,11.61-73.61,2.87-4.22,15.1-22.27,17.84-24.33.72-.54,1.32-1.1,2.31-.99l3.68,1.45ZM606.16,583.21c-4.69,1.43-2.08,13.24-1.04,16.77,3.25,11.05,14.66,21.42,26.3,22.72,4.02.45,5.44.5,6.84-3.75-.19-2.41-9.67-3.98-12.68-5.27-12.8-5.5-14.88-16.7-16.08-29.47l-3.34-1.01Z"/>
  </g>
</svg>