<?xml version="1.0" encoding="UTF-8"?>
<svg id="Layer_1" data-name="Layer 1" xmlns="http://www.w3.org/2000/svg" viewBox="0 0 1080 1080">
  <defs>
    <style>
      .cls-1 {
        fill: #1e93d1;
      }
    </style>
  </defs>
  <path class="cls-1" d="M625.27,319.43c6.69,2.12,13.66,6.65,16.19,13.53.45,1.22,1.9,6.71,1.9,7.57v114.14c23.87,1.13,48.13,2.54,71.79,6.17,9.66,1.48,39.85,6.13,44.4,15.04.55,1.07,1.04,2.06.99,3.32l-.43,64.22c-1.89,7.29-16.14,11-22.67,12.65-7.69,1.94-15.64,2.98-23.49,4.08-43.98,29.32-85.54,63.35-128.32,94.8-4.11,3.63-7.79,8.22-8.53,13.87-2.51,19.1,6.83,49.89-9.27,63.1-7.89,6.47-32.98,22.27-42.22,26.7-10.45,5.01-19.7.03-22.47-10.82-2.35-24.93,2.44-53.73-.2-78.19-.41-3.8-2.24-7.91-4.73-10.77-43.02-33.89-87.1-67.89-132.19-98.68-7.82-1.15-15.82-2.16-23.49-4.08-8.36-2.1-18.71-4.69-23.08-12.67v-66.33c7.63-9.59,22.69-12.15,34.3-14.37,26.98-5.17,55.45-6.48,82.86-8.03v-114.14c0-.87,1.45-6.35,1.9-7.57,2.53-6.88,9.5-11.41,16.19-13.53h170.57ZM627.86,334.03h-175.74v43.98h175.74v-43.98ZM627.86,392.65h-175.74v43.93h175.74v-43.93ZM627.86,452.09h-175.74v41.35l21.14.83c31.45,1.23,62.38,1.33,93.83.86,20.24-.3,40.71.41,60.77-1.69v-41.35ZM436.61,469.32c-32,2.37-64.46,3.89-95.63,11.63-.04,2.04,34,6.77,37.59,7.22,19.21,2.37,38.73,3.69,58.04,4.41v-23.26ZM643.36,469.32v23.26c27.1-1.31,55.31-2.97,82-8.02,4.22-.8,10.52-1.23,13.62-4.03-31.39-6.85-63.59-9.08-95.62-11.21ZM745.88,495.17c-15.46,3.68-31.12,6.81-46.95,8.61-66.64,7.58-137.13,7.56-204.12,6-40.13-.94-81.52-1.82-121.38-6.98-13.27-1.72-26.33-4.62-39.32-7.63v43.07c21.56,6.34,44.35,9.14,66.77,11.19,90.56,8.28,196.54,8.38,286.85-.86,19.56-2,39.36-4.63,58.16-10.33v-43.07ZM518.45,672.19v72.79l40.26-24.69,2.32-2.9c3.06-22.23-5.79-51.57,10.39-69.76l109.85-83.12c-10.66-.41-21.61,1.5-32.32,2.14-67.55,4.04-135.61,2.99-203.29.86l-46.95-3.43,107.69,81.39c7.3,6.89,11.21,16.77,12.05,26.72Z"/>
  <path class="cls-1" d="M388.37,319.43c1.05.91,4.31,3.5,4.31,4.74v79.68c6.57-2.23,10.63-14.84,18.89-9.83,4.63,2.81,4.34,7.59,1.38,11.57-1.92,2.58-22.9,23.2-24.52,23.72-2.63.85-5.27.57-7.37-1.34-3.33-5.08-23.16-20.7-24.37-24.73-1.11-3.7-.01-7.32,3.34-9.22,7.97-4.53,12.28,6.36,18.02,9.83v-78.82c0-1.41,3.97-4.56,5.17-5.6h5.17Z"/>
  <path class="cls-1" d="M696.77,319.43c1.19,1.04,5.17,4.19,5.17,5.6v78.82c5.74-3.47,10.05-14.36,18.02-9.83,3.35,1.91,4.45,5.52,3.34,9.22-.54,1.78-24.71,25.49-26.48,26.06-3.48,1.13-5.11.26-7.82-1.75-3.97-2.96-19.02-18-21.97-21.97-2.96-3.98-3.26-8.77,1.38-11.57,8.26-5,12.32,7.61,18.89,9.83v-79.68c0-1.24,3.25-3.83,4.31-4.74h5.17Z"/>
  <path class="cls-1" d="M581.95,348.9c3-.67,24.33-.63,27,.2,6.01,1.88,6.36,12.99-1.39,14.21-3.53.56-23.34.56-26.27-.34-6.43-1.96-5.62-12.67.66-14.08Z"/>
  <path class="cls-1" d="M508.73,348.9c7.05-1.58,18.53-.1,16.45,9.53-1.3,6-11.03,5.61-15.81,4.98-7.86-1.04-8.31-12.8-.63-14.51Z"/>
  <path class="cls-1" d="M471.69,348.9c5.13-1.14,15.59-1.37,16.58,5.48,1.42,9.78-8.55,10.08-15.85,8.93-8.02-1.27-7.36-12.93-.73-14.41Z"/>
  <path class="cls-1" d="M611.22,409.3c4.46,4.08,2.06,11.7-3.98,13.14-4.25,1.01-23.21.94-26.69-1-6-3.34-4.43-12.72,2.28-13.94,4.49-.81,18.35-.76,23.08-.23,1.59.18,4.15.96,5.31,2.02Z"/>
  <path class="cls-1" d="M509.61,407.5c5.86-1.06,15.47-.5,15.79,7.14.33,7.76-9.1,8.94-14.93,7.96-9.64-1.63-9.81-13.47-.86-15.09Z"/>
  <path class="cls-1" d="M468.76,409.3c3.87-3.54,17.55-3.14,19.36,2.91,3.97,13.31-19.65,13.55-21.33,4.97-.49-2.48.05-6.13,1.97-7.89Z"/>
  <path class="cls-1" d="M581.09,466.91c1.93-.56,26.15-.56,28.07,0,5.97,1.74,6.15,13.1-2.46,14.41-3.97.61-20.89.59-24.52-.35-7.16-1.86-6.71-12.42-1.09-14.06Z"/>
  <path class="cls-1" d="M507.87,466.92c4.75-1.06,15.96-1.4,17.31,4.75,2.02,9.24-7.87,10.63-14.83,9.63-9.34-1.33-9.05-12.91-2.48-14.38Z"/>
  <path class="cls-1" d="M470.82,466.91c4.26-1.24,16.32-1.29,17.47,4.58,1.89,9.73-7.61,11-15,9.83-8.65-1.37-8.41-12.68-2.46-14.41Z"/>
</svg>