<?xml version="1.0" encoding="UTF-8"?>
<svg id="Layer_1" data-name="Layer 1" xmlns="http://www.w3.org/2000/svg" viewBox="0 0 1080 1080">
  <defs>
    <style>
      .cls-1 {
        fill: #1e93d1;
      }
    </style>
  </defs>
  <path class="cls-1" d="M674.28,551.86v143.58h-269.86v-143.58h269.86M685.81,540.33h-292.92v166.64h292.92v-166.64h0Z"/>
  <path class="cls-1" d="M370.95,531.03v196.96h-38.13v-196.96h38.13M382.48,519.5h-61.19v220.01h61.19v-220.01h0Z"/>
  <path class="cls-1" d="M747.18,532.33v195.66h-38.13v-195.66h38.13M758.71,520.8h-61.19v218.71h61.19v-218.71h0Z"/>
  <path class="cls-1" d="M662.35,377.41c5.18.75,6.19,3.83,6.31,5.63.08,1.15-.05,4.8-4.68,6.49h-234.44c-2.75-.58-3.8-3.02-4.13-4.08-.3-.95-1.05-4.23,1.55-6.53.21-.16.67-.4,1.19-.64l234.19-.87M663.03,365.88l-237.36.88c-2.17.97-4.5,1.9-6.29,3.48-11.08,9.76-5.48,29.05,9.28,30.82h237c20.38-5.18,19.2-32.85-2.63-35.18h0Z"/>
  <path class="cls-1" d="M574.71,502.41c11.85,0,22.12.39,31.39,1.19,7.3.63,12.62,2.9,15.82,6.76,2.43,2.93,3.66,6.74,4.18,10.63h-158.87c1.19-7.55,5.86-13.35,12.83-15.92h.11c15,0,31.06-.67,46.59-1.31,15.87-.66,32.29-1.34,47.95-1.34h0M574.7,490.89c-31.41,0-64.64,2.66-94.54,2.66-.64,0-1.29,0-1.93,0-12.97,3.8-21.5,14.71-22.69,28.07-.32,3.61-1.27,8.44,1.78,10.91h180.31c2.26-22.54-7.01-38.38-30.55-40.4-10.42-.9-21.29-1.23-32.39-1.23h0Z"/>
  <path class="cls-1" d="M301.95,573.99v112.34h-2.98v-112.34h2.98M313.48,562.46h-26.04v135.39h26.04v-135.39h0Z"/>
  <path class="cls-1" d="M781.03,572.69v112.34h-2.98v-112.34h2.98M792.56,561.16h-26.04v135.39h26.04v-135.39h0Z"/>
  <polygon class="cls-1" points="607.7 472.63 485.24 472.63 485.24 486.96 607.7 486.96 607.7 472.63 607.7 472.63"/>
  <path class="cls-1" d="M532.49,340.49c-4.81,0-9.52.16-14.04.6-9.94.96-16.6,8.27-16.21,18.29h89.83c-.26-7.86-5.48-14.86-12.64-17.95-2.65.13-5.35.18-8.09.18-12.64,0-26.1-1.12-38.84-1.12h0Z"/>
  <path class="cls-1" d="M554.51,443.81v12.09h-16v-12.09h16M564.08,432.28h-32.55c-1.3,0-3.73.73-4.56,1.95v33.2h39.06v-33.2l-1.95-1.95h0Z"/>
  <path class="cls-1" d="M580.36,407.54h-66.39v19.53h64.44c4.05-4.89,1.09-13.36,1.95-19.53h0Z"/>
</svg>