<?xml version="1.0" encoding="UTF-8"?>
<svg id="Layer_1" data-name="Layer 1" xmlns="http://www.w3.org/2000/svg" viewBox="0 0 1080 1080">
  <defs>
    <style>
      .cls-1 {
        fill: #1e93d1;
      }
    </style>
  </defs>
  <path class="cls-1" d="M531.52,492.49l185.71.84-.33,153.2h-34.56c-3.62,7.86,2.13,15.56,10.55,16.39,2.38.24,5.4-.39,7.59.02,3.44.64,3.68,6.28.88,7.88l-147.28.29c-3-1.13-4.1-4.05-2.07-6.73,1.88-2.49,5.14-1.16,7.9-1.46,10.31-1.15,13.35-6.17,12.6-16.39h-41v14.94l-.88.88h-13.18v-138.52c0-.14-.45-.32-.46-.59l.43-.61c1.05.1,3.25-.86,3.84-.86h8.49v-2.93h-11.42l-.88-.88v-14.64l.88-.88h11.42v-9.96h-11.42c-1.76,0-1.74-2.39-1.37-3.71l.78-.97h12.01v-3.51h-12.01l-.82-.92.52-6.69h13.18l.88.88v14.94ZM704.91,512.35h-169.32v8.28h169.32v-8.28ZM535.59,537.84v7.37h169.33v-7.37h-169.33ZM535.62,594.99v7.03h169.3v-7.03h-169.3ZM535.59,619.59v7.64h169.33v-7.64h-169.33ZM666.23,646.53h-78.49c.98,6.82,7.67,13.44,14.17,15.4,7.03,2.13,35.6,1.62,44.13,1.02,9.77-.68,17.97-6.74,20.18-16.43Z"/>
  <path class="cls-1" d="M725.97,660v-108.36l37.7-.08c1.78-.59.67-5.35.96-6.94h-38.66v-3.51h38.66v-2.34h-38.66v-22.26h38.66v-15.81h-37.78l-.88-.88v-8.49h38.66v-3.51h-37.78c-1.37-1.11-1.43-8.19.08-8.71,1.77-.64,3.65.54,5.19.5,9.37-.24,19.27-1.35,28.72-.61,6.4.5,10.68,3.23,11.83,9.84l.18,158.01c-.52,4.74-.77,8.49-5.1,11.3-.51.33-3.75,1.85-4.01,1.85h-37.78Z"/>
  <path class="cls-1" d="M431.24,507.31c10.14-1.03,21.71.35,32.07.44,4.74.04,9.52-.75,14.58,0,3.99.6,6.05,4.61,7.22,8.01l.13,102.94c-.98,11.73-7.75,16.65-19,17.32-7.89.46-19.13.5-27,0-11.27-.73-18.15-5.48-19.03-17.28-2.41-32.3,1.84-67.56.03-100.17.66-7.82,3.28-10.47,11-11.25ZM479.97,525.29h-52.71v1.76h52.71v-1.76ZM427.26,536.39v2.37h52.72v-2.37h-52.72ZM480.27,548.13h-53.01v1.76h53.01v-1.76ZM427.26,559.26v2.34h52.71v-2.34h-52.71ZM479.97,570.98h-52.71v1.76h52.71v-1.76ZM427.26,582.1v2.34h52.71v-2.34h-52.71ZM479.97,593.82h-52.71v1.76h52.71v-1.76ZM427.26,604.95v2.34h52.72v-2.34h-52.72ZM480.27,616.66h-53.01v1.76h53.01v-1.76Z"/>
  <path class="cls-1" d="M672.38,429.23c-3.34.43-4.61,1.19-3.54,4.71.48,1.59,4.85,5.34,2.26,6.3-6.36,2.36-24.7-4.07-32.26-5.02-1.96-.25-4.26,0-1.86,1.87,2.87,2.26,8.88,4.09,11.11,6.46.8.85,1.4,1.3,1.15,2.65-8.52.23-17-.36-25.47-1.17-12.91-1.24-26.9-3.31-39.74-5.36-1.82-.29-8.8-1.09-9.48-2.24l-.21-34.49c16.53-3.54,32.91-8.2,49.6-11.02,5.59-.94,11.45-2.27,17.09-1.65l-7.92,6.14c-1.28,2.55,5.6,1.82,7.04,1.76,8.05-.32,17.74-3.67,25.34-1.32,8.71,2.7,3.91,7.61-1.79,10.22-1.71.78-4.49.64-5.68,2.22,9.78-.13,19.8-2.68,29.6-1.78,1.95.18,10.43,2.13,8.22,5.32-1.22,1.77-16.48,3.3-19.38,3.48-1.7.11-12.59-.59-12.58.88,5,3.93,11.66,5.26,17.15,8.61.45.28,5.2,3.4,2.46,3.4-3.36,0-7.98-.41-11.13,0Z"/>
  <rect class="cls-1" x="307.16" y="611.98" width="35.17" height="77.9"/>
  <rect class="cls-1" x="500.47" y="402.88" width="68.53" height="35.14"/>
  <path class="cls-1" d="M495.79,402.88v35.14h-21.96c-.59,0-2.64,2.05-2.64,2.64v14.94h-35.14c-.75-16.1.55-31.93,13.46-43.06,5.17-4.45,15.68-9.66,22.56-9.66h23.72Z"/>
  <path class="cls-1" d="M365.18,553.99v35.14h-19.04c-.15,0-2.14.93-2.37,1.14-1.96,1.74-.02,12.03-1.46,15.23l-35.12-.55c-.32-14.6,1.07-29.15,11.99-39.85,5.47-5.36,16.92-11.11,24.62-11.11h21.38Z"/>
  <rect class="cls-1" x="492.27" y="528.81" width="18.16" height="91.96"/>
  <rect class="cls-1" x="385.09" y="545.21" width="30.51" height="53.33"/>
  <rect class="cls-1" x="433.12" y="479.02" width="41" height="23.43"/>
  <rect class="cls-1" x="369.25" y="540.56" width="10.57" height="60.87"/>
  <rect class="cls-1" x="427.23" y="464.38" width="52.74" height="10.57"/>
</svg>