<?xml version="1.0" encoding="UTF-8"?>
<svg id="Layer_1" data-name="Layer 1" xmlns="http://www.w3.org/2000/svg" viewBox="0 0 1080 1080">
  <defs>
    <style>
      .cls-1 {
        fill: #1e93d1;
      }
    </style>
  </defs>
  <path class="cls-1" d="M354.58,458.36l170.99-172.63,172.49,172.63v160.36h-125.19l-2.66-3.1c-.06-.84,1.62-1.56,1.62-2.07v-105.53l-3.1-3.1h-84.84c-2.95,1.82-2.86,4.13-3.21,7.14-2.87,24.43-.39,63.26.01,89.16.09,6.11,3.35,11.06.09,17.51h-126.22v-160.36Z"/>
  <polygon class="cls-1" points="402.17 333.17 527.07 211.24 770.48 457.32 723.93 457.32 527.07 260.9 328.71 457.32 282.16 457.32 371.13 365.24 371.13 304.2 402.17 304.2 402.17 333.17"/>
</svg>