<?xml version="1.0" encoding="UTF-8"?>
<svg id="Layer_1" data-name="Layer 1" xmlns="http://www.w3.org/2000/svg" viewBox="0 0 1080 1080">
  <defs>
    <style>
      .cls-1 {
        fill: #1e93d1;
      }
    </style>
  </defs>
  <path class="cls-1" d="M447.53,356.58v6.05c15.44-3.39,13.08,18.6,16.46,28.47,14.3,1.6,29.28,2.91,40.58,12.57,21.47,18.34,12.97,47.26,14.72,72.14,23.56,4.75,22.13,35.86-.08,42.09v76.71c23.49,5.82,22.43,35.89,0,42.55l-.17,114.6c-.56,3.15-2.16,5.26-5.46,5.77-4.53.7-18.57.61-23.3.07-1.44-.16-2.71-.35-3.85-1.34-4.42-3.82-9.84-47.3-12.69-47.98h-87.94s-9.96,43.73-9.96,43.73c-1.34,3.73-2.46,5.23-6.48,5.62-4.44.43-19.42.67-23.36-.07-2.41-.45-4.36-3.36-4.73-5.64v-114.79c-13.57-3.81-21.46-16.65-15.62-30.36,3.06-7.19,9.08-9.62,15.46-13.06l.17-75.84c-15.79-4-23.33-22-12.59-35.1,3.72-4.55,7.7-5.38,12.42-8.32,2.08-26.13-7.46-54.25,16.12-72.89,11.35-8.97,24.88-8.88,38.44-11.68,3.17-5.26,3.7-25.02,9.44-26.85,2.42-.77,6.95.54,7.71-1.79-2.44-18.89,7.94-36.32,27.31-39.24l202.73.43c17.92,4.69,26.38,20.86,24.28,38.81l1.29,1.3c14.9-2.25,11.14,19.35,16.01,28.5,13.47,2.05,27.27,2.55,38.29,11.39,23.43,18.8,14.13,45.81,16.12,72.03,6.38,3.44,12.4,5.87,15.46,13.06,5.82,13.68-2.02,26.54-15.63,30.36l.17,75.84c5.05,3.05,9.54,4.17,13.21,9.26,9.65,13.4,1.83,30.26-13.38,34.16l-.92,117.32c-.7.84-1.52,2.26-2.49,2.69-1.73.78-22.51.88-25.52.49-3.93-.51-4.95-3.61-6.02-6.94-4.22-13.13-5.35-29.06-9.56-42.41h-87.94c-2.85.69-8.27,44.17-12.69,47.99-1.14.98-2.41,1.17-3.85,1.34-4.73.54-18.76.64-23.3-.07-2.99-.46-4.61-2.2-5.29-5.08l-.34-115.29c-22.43-6.65-23.49-36.73.01-42.55v-76.71c-22.22-6.23-23.64-37.34-.09-42.09,1.83-25.04-6.92-54.43,14.72-73,11.49-9.85,26.17-10.63,40.51-12.63,4.05-9.67,1.05-30.85,16.54-27.54v-6.05h-184.94ZM653.21,362.63v-12.53c0-.3-1.86-4.8-2.24-5.53-2.43-4.64-7.63-8.16-12.88-8.73-66.72.69-133.79-1.38-200.32,1.05-4.42,1.08-10.99,9.02-10.99,13.21v12.53l6.54-.81c.55-8.65-1.02-18.03,10.27-19.11l193.65.02c10.71,1.6,8.77,10.86,9.43,19.09l6.54.81ZM446.58,376.54l-32.64.03-2.71,11.98,38.03.86-2.68-12.87ZM669.63,389.41l-2.99-12.13c-1.34-1.92-28.75-.33-33.23-.74l-2.69,11.57,38.9,1.3ZM505.43,474.97v-40.19c0-14.06-11.38-23.91-24.04-26.95-26.34-6.34-82.41-8.34-107.79.56-7.88,2.76-18.55,13.33-18.55,22.07v44.51h150.37ZM574.57,433.92c-1.24,13.02.92,27.84,0,41.05h150.37v-43.64c0-10.33-12.5-20.65-21.78-23.16-24.29-6.57-62.43-6.94-87.43-3.95-20.09,2.4-38.86,5.61-41.16,29.7ZM344.46,489.01c-8.63,1.55-9.35,13.45-.22,14.51l174.14-.47c7.33-5.12,4.04-14.29-4.7-14.27l-169.21.24ZM563.97,489.01c-7.7,1.65-8.52,9.72-2.34,14.04l174.14.47c10.04-1.16,7.74-14.65-1.75-14.71l-170.04.2ZM505.43,518.18h-150.37v76.05h150.37v-76.05ZM724.94,518.18h-150.37v76.05h150.37v-76.05ZM343.57,608.24c-7.7,2.57-8.18,13.5.66,14.53l174.14-.47c5.55-3.84,5.72-11.17-.99-13.67l-173.81-.39ZM563.97,608.27c-7.7,1.65-8.52,9.72-2.34,14.04l174.14.47c8.22-.95,8.51-10.54,1.92-14.06l-173.71-.45ZM505.43,637.45h-150.37v57.04h150.37v-57.04ZM724.94,637.45h-150.37v57.04h150.37v-57.04ZM371.48,708.31h-16.42v35.43l8.6-.04,7.82-35.39ZM505.43,708.31h-16.42l7.86,35.35,8.56.09v-35.43ZM590.99,708.31h-16.42v35.43l8.56-.09,7.86-35.35ZM724.94,708.31h-16.42l7.82,35.39,8.6.04v-35.43Z"/>
  <path class="cls-1" d="M429.94,522.76c5.03-.26,15.36,13.42,18.29,17.62,8.71,12.5,14.12,24.84,3.19,38.31-19.66,24.25-58.07,2.5-46.4-26.52,1.76-4.37,5.28-9.7,8.08-13.52,3.04-4.14,11.94-15.62,16.84-15.88ZM439.46,571.47c7.15-7.13,2.89-14.68-1.6-21.58-.93-1.43-6.88-9.45-7.99-9.21-4.51,5.2-14.45,16.24-13.11,23.33,1.92,10.17,15.18,14.95,22.69,7.46Z"/>
  <path class="cls-1" d="M649.46,522.76c5.14-.27,14,11.21,17.07,15.38,8.59,11.63,14.82,22.48,7.44,36.67-9.21,17.73-33.68,19.04-45.8,3.42-10.42-13.44-4.99-25.59,3.6-37.84,2.86-4.08,13.03-17.38,17.69-17.62ZM640.54,571.47c7.51,7.49,20.77,2.71,22.69-7.46,1.34-7.09-8.6-18.13-13.11-23.33-1.11-.24-7.06,7.77-7.99,9.21-4.48,6.9-8.75,14.46-1.6,21.58Z"/>
</svg>