<?xml version="1.0" encoding="UTF-8"?>
<svg id="Layer_1" data-name="Layer 1" xmlns="http://www.w3.org/2000/svg" viewBox="0 0 1080 1080">
  <defs>
    <style>
      .cls-1 {
        fill: #1e93d1;
      }
    </style>
  </defs>
  <path class="cls-1" d="M578.11,332.65c32.95,4.83,68.51,6.95,100.62,18.61,20.31,7.38,40.44,16.62,42.54,40.4,8.13,91.72-6.26,195.34-.08,288.32-1.46,17.46-17.44,29.5-33.17,34.2.63-3.92-1.31-11.1.42-14.09.59-1.02,18.23-10.11,18.23-13.89v-274.75l-18.65,8.28c-7.5-18.7,19.39-18.7,18.69-31.94-.94-17.78-53.78-30.52-68.39-33.44-58-11.57-135.16-12.55-192.93.05-6.48,1.41-41.71,9.16-39.37,18.59,7.29,7.05,17.48,9.72,26.95,12.53,46.28,13.74,97.34,11.05,145.16,11.4v12.46c-43.97,2.32-91.65,1.99-134.86-7.2-17.7-3.76-52.36-11.06-49.72-34.28-15.85,7.53-35.01,17.85-13.11,32.83,30.13,20.61,106.13,28.4,142.65,29.46,18.45.54,36.74-.57,55.04-2.17v14.54c-57.22.33-116.56,1.39-171.62-16.06-12.62-4-23.81-9.67-35.75-15.06v274.75c0,2.64,15.22,12.71,18.7,14.48,42.46,21.49,127.69,25.58,175.27,23.98,4.66-.16,8.76-2.12,13.37-2.16l.02,14.52c-50.23.54-99.65,1.28-148.93-9.72-22.61-5.05-67.94-16.8-72.46-43.66l-.57-289.88c1.43-16.77,5.21-21.94,18.91-30.86,28.77-18.75,90.38-28.25,124.25-30.24h78.8Z"/>
  <path class="cls-1" d="M603,376.2v31.1h58.06c1.12-7.38-4.24-33.32,7.25-33.24,2.25.02,7.26,4.18,7.26,5.24v362.88c0,6.02-14.52,6.02-14.52,0v-30.07h-58.06v32.14c0,4.12-12.44,4.12-12.44,0v-364.95c0-3.98,8.91-5.72,12.44-3.11ZM661.06,419.74h-54.95l-3.11,3.11v32.14h58.06v-35.25ZM661.06,469.51h-58.06v32.14l3.11,3.11h54.95v-35.25ZM603,517.2v35.25h58.06v-35.25h-58.06ZM661.06,566.97h-58.06v32.14l3.11,3.11h54.95v-35.25ZM603,614.66v35.25h58.06v-35.25h-58.06ZM661.06,664.43h-58.06v33.18h58.06v-33.18Z"/>
  <path class="cls-1" d="M490.23,469.68c11.05-3.75,13.01,16.99,16.38,24.67,18.88,42.98,69.58,88.44,45.38,138.76-23.93,49.77-97.76,48.12-118.75-3.18-19.98-48.83,22.59-84.25,41.57-123.77,2.66-5.54,12.76-35.58,15.42-36.49ZM456.51,640.88c34.64,34.63,92.21,6.83,88.41-41.75-2.81-35.92-41.73-65.51-49.77-100.58l-41.8,67.04c-13.29,24.75-18.61,53.53,3.16,75.3Z"/>
  <path class="cls-1" d="M472.08,581.79c1.95,6.54-2.11,12.78-1.71,19.14.44,7.07,15.6,25.28,2.99,26.32-15.57,1.28-22.52-40.55-7.96-47.45l6.68,1.99Z"/>
  <rect class="cls-1" x="393.51" y="467.05" width="9.79" height="57.63" rx="4.89" ry="4.89"/>
  <rect class="cls-1" x="393.51" y="529.84" width="9.79" height="15.15" rx="4.89" ry="4.89"/>
</svg>